# Blender v3.1.0 Alpha OBJ File: 'G17 Stand-in.blend'
# www.blender.org
mtllib Mag.mtl
o Magazine_Cube.003
v -0.859163 -1.589458 0.312604
v -0.789759 -1.464348 0.271039
v -0.859163 -1.589458 -0.312605
v -0.789759 -1.464348 -0.271039
v 0.184793 -1.589458 0.312604
v 0.115389 -1.464348 0.271039
v 0.184793 -1.589458 -0.312605
v 0.115389 -1.464348 -0.271039
v -0.859163 -1.464348 0.312604
v -0.859163 -1.464348 -0.312605
v 0.184793 -1.464348 -0.312605
v 0.184793 -1.464348 0.312604
v 0.040680 0.686872 0.271039
v 0.040680 0.686872 -0.271039
v 0.864804 0.686872 -0.271039
v 0.864804 0.686872 0.271039
vt 0.375000 0.000000
vt 0.625000 0.000000
vt 0.625000 0.250000
vt 0.375000 0.250000
vt 0.625000 0.500000
vt 0.375000 0.500000
vt 0.625000 0.750000
vt 0.375000 0.750000
vt 0.625000 1.000000
vt 0.375000 1.000000
vt 0.125000 0.500000
vt 0.125000 0.750000
vt 0.858379 0.733379
vt 0.641621 0.733379
vt 0.641621 0.733379
vt 0.858379 0.733379
vt 0.858379 0.516621
vt 0.875000 0.500000
vt 0.875000 0.750000
vt 0.641621 0.516621
vt 0.641621 0.516621
vt 0.858379 0.516621
vn -1.0000 0.0000 0.0000
vn 0.0000 0.0000 -1.0000
vn 1.0000 0.0000 0.0000
vn 0.0000 0.0000 1.0000
vn 0.0000 -1.0000 0.0000
vn 0.0000 1.0000 0.0000
vn 0.9443 -0.3290 0.0000
vn -0.9329 0.3601 0.0000
usemtl None
s off
f 1/1/1 9/2/1 10/3/1 3/4/1
f 3/4/2 10/3/2 11/5/2 7/6/2
f 7/6/3 11/5/3 12/7/3 5/8/3
f 5/8/4 12/7/4 9/9/4 1/10/4
f 3/11/5 7/6/5 5/8/5 1/12/5
f 2/13/4 6/14/4 16/15/4 13/16/4
f 2/13/6 4/17/6 10/18/6 9/19/6
f 4/17/6 8/20/6 11/5/6 10/18/6
f 8/20/6 6/14/6 12/7/6 11/5/6
f 6/14/6 2/13/6 9/19/6 12/7/6
f 15/21/6 14/22/6 13/16/6 16/15/6
f 8/20/2 4/17/2 14/22/2 15/21/2
f 6/14/7 8/20/7 15/21/7 16/15/7
f 4/17/8 2/13/8 13/16/8 14/22/8
o Upper_Cube.001
v 2.304022 1.476371 -0.324179
v 2.304022 0.989129 -0.324179
v 2.304022 1.476371 0.324179
v 2.304022 0.989129 0.324179
v -1.987273 1.476371 -0.324179
v -1.987273 0.989129 -0.324179
v -1.987273 1.476371 0.324179
v -1.987273 0.989129 0.324179
v 0.030148 0.989129 -0.324179
v -0.586133 0.989129 -0.324179
v 0.030148 1.476371 0.324179
v -0.586133 1.476371 0.324179
v -0.586133 0.989129 0.324179
v 0.030148 0.989129 0.324179
v -0.586133 1.476371 -0.324179
v 0.030148 1.476371 -0.324179
v -1.987273 0.989129 0.000000
v 2.304022 1.476371 0.000000
v -1.987273 1.476371 0.000000
v 2.304022 0.989129 0.000000
v -0.586133 0.989129 0.000000
v 0.030148 0.989129 0.000000
v 0.030148 1.476371 0.000000
v -0.586133 1.476371 0.000000
v 2.304022 1.232750 -0.324179
v -1.987273 1.232750 0.324179
v 2.304022 1.232750 0.324179
v -1.987273 1.232750 -0.324179
v -0.586133 1.232750 -0.324179
v 0.030148 1.232750 -0.324179
v 0.030148 1.232750 0.324179
v -0.586133 1.232750 0.324179
v 2.304022 1.232750 0.000000
v -1.987273 1.232750 0.000000
v 0.030148 1.232750 0.000000
v -0.586133 1.232750 0.000000
vt 0.791667 0.625000
vt 0.875000 0.625000
vt 0.875000 0.750000
vt 0.791667 0.750000
vt 0.500000 0.916667
vt 0.625000 0.916667
vt 0.625000 1.000000
vt 0.500000 1.000000
vt 0.500000 0.125000
vt 0.625000 0.125000
vt 0.625000 0.250000
vt 0.500000 0.250000
vt 0.291667 0.625000
vt 0.375000 0.625000
vt 0.375000 0.750000
vt 0.291667 0.750000
vt 0.500000 0.625000
vt 0.625000 0.625000
vt 0.625000 0.750000
vt 0.500000 0.750000
vt 0.500000 0.416667
vt 0.625000 0.416667
vt 0.625000 0.500000
vt 0.500000 0.500000
vt 0.625000 0.333333
vt 0.500000 0.333333
vt 0.125000 0.625000
vt 0.208333 0.625000
vt 0.208333 0.750000
vt 0.125000 0.750000
vt 0.625000 0.833333
vt 0.500000 0.833333
vt 0.000000 0.000000
vt 0.000000 0.000000
vt 0.708333 0.625000
vt 0.708333 0.750000
vt 0.000000 0.000000
vt 0.000000 0.000000
vt 0.708333 0.500000
vt 0.791667 0.500000
vt 0.208333 0.500000
vt 0.291667 0.500000
vt 0.125000 0.500000
vt 0.375000 0.500000
vt 0.500000 0.000000
vt 0.625000 0.000000
vt 0.875000 0.500000
vt 0.375000 0.000000
vt 0.375000 0.125000
vt 0.375000 0.833333
vt 0.375000 0.916667
vt 0.375000 0.333333
vt 0.375000 0.416667
vt 0.375000 0.250000
vt 0.375000 1.000000
vt 0.000000 0.000000
vt 0.000000 0.000000
vn 0.0000 1.0000 0.0000
vn 0.0000 0.0000 1.0000
vn -1.0000 0.0000 0.0000
vn 0.0000 -1.0000 0.0000
vn 1.0000 0.0000 0.0000
vn 0.0000 0.0000 -1.0000
usemtl Material
s off
f 40/23/9 35/24/9 23/25/9 28/26/9
f 48/27/10 28/28/10 23/29/10 42/30/10
f 50/31/11 35/32/11 21/33/11 44/34/11
f 38/35/12 36/36/12 20/37/12 30/38/12
f 49/39/13 34/40/13 19/41/13 43/42/13
f 46/43/14 32/44/14 17/45/14 41/46/14
f 44/34/14 21/33/14 31/47/14 45/48/14
f 45/48/14 31/47/14 32/44/14 46/43/14
f 33/49/12 37/50/12 29/51/12 24/52/12
f 37/50/12 38/35/12 30/38/12 29/51/12
f 43/42/10 19/41/10 27/53/10 47/54/10
f 27/53/11 39/55/11 51/56/11 47/54/11
f 34/40/9 39/57/9 27/58/9 19/41/9
f 28/28/13 48/27/13 52/59/13 40/60/13
f 32/61/9 31/62/9 40/23/9 39/57/9
f 17/45/9 32/61/9 39/57/9 34/40/9
f 26/63/12 25/64/12 38/35/12 37/50/12
f 22/65/12 26/63/12 37/50/12 33/49/12
f 41/46/13 17/45/13 34/40/13 49/39/13
f 25/64/12 18/66/12 36/36/12 38/35/12
f 42/67/11 23/68/11 35/32/11 50/31/11
f 31/62/9 21/69/9 35/24/9 40/23/9
f 24/70/11 42/67/11 50/31/11 33/71/11
f 18/66/13 41/46/13 49/39/13 36/36/13
f 30/72/10 47/54/10 48/27/10 29/73/10
f 20/37/10 43/42/10 47/54/10 30/72/10
f 26/74/14 45/48/14 46/43/14 25/75/14
f 22/76/14 44/34/14 45/48/14 26/74/14
f 25/75/14 46/43/14 41/46/14 18/66/14
f 36/36/13 49/39/13 43/42/13 20/37/13
f 33/71/11 50/31/11 44/34/11 22/76/11
f 29/73/10 48/27/10 42/30/10 24/77/10
f 40/60/10 52/59/10 51/56/10 39/55/10
f 47/78/9 51/56/9 52/59/9 48/79/9
l 46 51
l 45 52
o Trigger_Cube.002
v -0.319616 0.526988 0.099327
v -0.400002 0.708652 0.099327
v -0.319616 0.526988 -0.099327
v -0.400002 0.708652 -0.099327
v -0.137952 0.607374 0.099327
v -0.218338 0.789038 0.099327
v -0.137952 0.607374 -0.099327
v -0.218338 0.789038 -0.099327
v 0.020462 0.097127 -0.036455
v 0.020462 0.097127 0.036455
v 0.069562 0.151025 -0.036455
v 0.069562 0.151025 0.036455
v -0.067624 0.396800 -0.072615
v -0.192967 0.327667 -0.072615
v -0.192967 0.327667 0.072615
v -0.067624 0.396800 0.072615
vt 0.375000 0.000000
vt 0.625000 0.000000
vt 0.625000 0.250000
vt 0.375000 0.250000
vt 0.625000 0.500000
vt 0.375000 0.500000
vt 0.625000 0.750000
vt 0.375000 0.750000
vt 0.625000 1.000000
vt 0.375000 1.000000
vt 0.375000 0.250000
vt 0.375000 0.500000
vt 0.375000 0.500000
vt 0.375000 0.250000
vt 0.875000 0.500000
vt 0.875000 0.750000
vt 0.125000 0.500000
vt 0.375000 0.750000
vt 0.125000 0.750000
vt 0.375000 0.000000
vt 0.375000 0.000000
vt 0.375000 0.750000
vt 0.375000 1.000000
vt 0.375000 1.000000
vn -0.9145 -0.4047 0.0000
vn 0.0000 0.0000 -1.0000
vn 0.9145 0.4047 0.0000
vn -0.0000 -0.0000 1.0000
vn 0.0700 -0.0992 -0.9926
vn -0.4047 0.9145 -0.0000
vn 0.7392 -0.6734 0.0000
vn -0.7338 -0.6793 -0.0000
vn 0.8732 0.4874 0.0000
vn 0.0700 -0.0992 0.9926
vn 0.0511 -0.1049 0.9932
vn 0.9485 0.3168 0.0000
vn -0.8440 -0.5363 -0.0000
vn 0.0511 -0.1049 -0.9932
usemtl None
s off
f 53/80/15 54/81/15 56/82/15 55/83/15
f 55/83/16 56/82/16 60/84/16 59/85/16
f 59/85/17 60/84/17 58/86/17 57/87/17
f 57/87/18 58/86/18 54/88/18 53/89/18
f 66/90/19 65/91/19 63/92/19 61/93/19
f 60/84/20 56/94/20 54/95/20 58/86/20
f 61/96/21 63/92/21 64/97/21 62/98/21
f 67/99/22 66/90/22 61/93/22 62/100/22
f 65/91/23 68/101/23 64/97/23 63/92/23
f 68/101/24 67/102/24 62/103/24 64/97/24
f 57/87/25 53/89/25 67/102/25 68/101/25
f 59/85/26 57/87/26 68/101/26 65/91/26
f 53/80/27 55/83/27 66/90/27 67/99/27
f 55/83/28 59/85/28 65/91/28 66/90/28
o Lower_Cube
v 2.304022 0.969321 -0.324179
v 2.304022 0.580956 -0.324179
v 2.304022 0.969321 0.324179
v 2.304022 0.580956 0.324179
v -1.953413 0.969321 -0.284495
v -1.987273 0.580956 -0.324179
v -1.953413 0.969321 0.284496
v -1.987273 0.580956 0.324179
v -1.655376 0.580956 -0.324179
v -1.655376 0.969321 0.284496
v -1.655376 0.580956 0.324179
v -1.655376 0.969321 -0.284495
v -0.344937 0.580956 0.324179
v -0.344937 0.969321 -0.284495
v -0.344937 0.580956 -0.324179
v -0.344937 0.969321 0.284496
v 0.819826 0.580956 0.324179
v 0.785966 0.969321 -0.284495
v 0.819826 0.580956 -0.324179
v 0.785966 0.969321 0.284496
v 0.436783 0.580956 -0.324179
v 0.436783 0.969321 0.284496
v 0.436783 0.580956 0.324179
v 0.436783 0.969321 -0.284495
v -1.088167 -1.438606 -0.324179
v -2.398606 -1.438606 -0.324179
v -2.398606 -1.438606 0.324178
v -1.088167 -1.438606 0.324178
v -1.790485 -0.034726 0.324179
v -0.564357 -0.015269 0.324179
v -0.564357 -0.015269 -0.324179
v -1.790485 -0.034726 -0.324179
v -0.426677 0.358847 0.324179
v -0.426677 0.358847 -0.324179
v -1.675504 0.349118 -0.324179
v -1.675504 0.349118 0.324179
v 0.536241 -0.051448 0.083176
v 0.709108 -0.051448 0.083176
v 0.709108 -0.051448 -0.083176
v 0.536241 -0.051448 -0.083176
v 0.217789 -0.067264 0.083176
v 0.217789 -0.067264 -0.083176
v 0.217789 0.064466 0.083176
v 0.217789 0.064466 -0.083176
v 0.709108 0.079523 0.083176
v 0.709108 0.079523 -0.083176
v 0.536241 0.079523 -0.083176
v 0.536241 0.079523 0.083176
v 0.677590 0.330239 -0.083423
v 0.579019 0.330239 0.083423
v 0.677590 0.330239 0.083423
v 0.579019 0.330239 -0.083423
v -0.422743 0.022003 0.083176
v -0.350700 0.143830 0.083176
v -0.422743 0.022003 -0.083176
v -0.350700 0.143830 -0.083176
v -0.210418 -0.072500 0.083176
v -0.210418 -0.072500 -0.083176
v -0.168659 0.060094 0.083176
v -0.168659 0.060094 -0.083176
v -1.655376 0.969321 0.324179
v -1.987273 0.969321 0.324179
v -1.987273 0.969321 -0.324179
v -0.344937 0.969321 0.324179
v -1.655376 0.969321 -0.324179
v -0.344937 0.969321 -0.324179
v 0.436783 0.969321 0.324179
v 0.436783 0.969321 -0.324179
v 0.819826 0.969321 -0.324179
v 0.819826 0.969321 0.324179
v -1.655376 1.440113 -0.284495
v -1.655376 1.440113 0.284496
v -0.344937 1.440113 -0.284495
v -0.344937 1.440113 0.284496
v 0.436783 1.440113 -0.284495
v 0.436783 1.440113 0.284496
v -1.953413 1.440113 0.284496
v -1.953413 1.440113 -0.284495
v 0.785966 1.440113 -0.284495
v 0.785966 1.440113 0.284496
vt 0.713438 0.515301
vt 0.733781 0.515301
vt 0.733781 0.515301
vt 0.713438 0.515301
vt 0.375000 0.980664
vt 0.625000 0.980664
vt 0.625000 1.000000
vt 0.375000 1.000000
vt 0.375000 0.000000
vt 0.625000 0.000000
vt 0.625000 0.250000
vt 0.375000 0.250000
vt 0.288534 0.500000
vt 0.375000 0.500000
vt 0.375000 0.750000
vt 0.288534 0.750000
vt 0.625000 0.500000
vt 0.625000 0.750000
vt 0.375000 0.413534
vt 0.625000 0.413534
vt 0.625000 0.269336
vt 0.375000 0.269336
vt 0.125000 0.500000
vt 0.144336 0.500000
vt 0.144336 0.750000
vt 0.125000 0.750000
vt 0.375000 0.904322
vt 0.625000 0.904322
vt 0.779322 0.515301
vt 0.779322 0.515301
vt 0.855664 0.734699
vt 0.779322 0.734699
vt 0.779322 0.734699
vt 0.855664 0.734699
vt 0.375000 0.858781
vt 0.625000 0.858781
vt 0.625000 0.345678
vt 0.375000 0.345678
vt 0.375000 0.904322
vt 0.375000 0.980664
vt 0.375000 0.980664
vt 0.375000 0.904322
vt 0.625000 0.836465
vt 0.375000 0.836466
vt 0.711466 0.500000
vt 0.711466 0.750000
vt 0.375000 0.391219
vt 0.625000 0.391219
vt 0.288534 0.500000
vt 0.288534 0.750000
vt 0.288534 0.750000
vt 0.288534 0.500000
vt 0.220678 0.500000
vt 0.266219 0.500000
vt 0.266219 0.750000
vt 0.220678 0.750000
vt 0.733781 0.734699
vt 0.733781 0.734699
vt 0.144336 0.500000
vt 0.220678 0.500000
vt 0.220678 0.750000
vt 0.144336 0.750000
vt 0.220678 0.500000
vt 0.220678 0.750000
vt 0.375000 0.269336
vt 0.375000 0.345678
vt 0.375000 0.345678
vt 0.375000 0.269336
vt 0.144336 0.750000
vt 0.144336 0.500000
vt 0.144336 0.750000
vt 0.144336 0.500000
vt 0.375000 0.269336
vt 0.375000 0.345678
vt 0.375000 0.904322
vt 0.375000 0.904322
vt 0.375000 0.904322
vt 0.375000 0.904322
vt 0.375000 0.904322
vt 0.375000 0.980664
vt 0.220678 0.750000
vt 0.220678 0.500000
vt 0.266219 0.500000
vt 0.266219 0.750000
vt 0.266219 0.750000
vt 0.266219 0.500000
vt 0.375000 0.391219
vt 0.375000 0.413534
vt 0.375000 0.413534
vt 0.375000 0.391219
vt 0.375000 0.836465
vt 0.375000 0.858781
vt 0.375000 0.858781
vt 0.375000 0.836466
vt 0.220678 0.500000
vt 0.220678 0.750000
vt 0.220678 0.750000
vt 0.220678 0.500000
vt 0.220678 0.750000
vt 0.220678 0.500000
vt 0.220678 0.500000
vt 0.220678 0.750000
vt 0.375000 0.345678
vt 0.375000 0.345678
vt 0.375000 0.345678
vt 0.375000 0.345678
vt 0.375000 0.836465
vt 0.375000 0.858781
vt 0.375000 0.391219
vt 0.375000 0.413534
vt 0.266219 0.750000
vt 0.266219 0.500000
vt 0.288534 0.500000
vt 0.288534 0.750000
vt 0.375000 0.345678
vt 0.375000 0.345678
vt 0.220678 0.750000
vt 0.220678 0.500000
vt 0.220678 0.500000
vt 0.220678 0.750000
vt 0.375000 0.904322
vt 0.375000 0.904322
vt 0.000000 0.000000
vt 0.000000 0.000000
vt 0.000000 0.000000
vt 0.000000 0.000000
vt 0.000000 0.000000
vt 0.000000 0.000000
vt 0.000000 0.000000
vt 0.000000 0.000000
vt 0.873027 0.734699
vt 0.875000 0.750000
vt 0.855664 0.750000
vt 0.873027 0.515301
vt 0.875000 0.500000
vt 0.779322 0.750000
vt 0.855664 0.515301
vt 0.855664 0.500000
vt 0.779322 0.500000
vt 0.733781 0.750000
vt 0.733781 0.500000
vt 0.713438 0.734699
vt 0.855664 0.515301
vt 0.873027 0.515301
vt 0.873027 0.734699
vt 0.713438 0.734699
vn 0.0000 0.0000 -1.0000
vn 0.0000 0.0000 1.0000
vn -1.0000 0.0000 0.0000
vn 0.0000 -1.0000 0.0000
vn 1.0000 0.0000 0.0000
vn 0.0000 1.0000 0.0000
vn 0.9385 -0.3454 0.0000
vn -0.9176 0.3975 0.0000
vn -0.9579 0.2870 0.0000
vn -0.9963 0.0865 0.0000
vn 0.0122 -0.9999 -0.0000
vn -0.0113 0.9999 0.0000
vn 0.0000 -0.0010 1.0000
vn 0.0000 -0.0010 -1.0000
vn -0.9858 0.1682 0.0000
vn 0.9922 0.1247 -0.0000
vn 0.8698 -0.4934 -0.0000
vn -0.8698 -0.4934 0.0000
vn 0.0000 -0.6926 -0.7213
vn 0.0000 -0.6926 0.7213
vn 0.8038 -0.3399 -0.4882
vn 0.9429 0.3332 0.0000
vn 0.2545 -0.9671 -0.0000
vn 0.8038 -0.3399 0.4882
vn 0.4179 0.9085 0.0000
vn -0.4066 -0.9136 -0.0000
vn -0.0472 0.9989 0.0000
vn 0.0496 -0.9988 -0.0000
usemtl Material
s off
f 86/104/29 92/105/29 143/106/29 147/107/29
f 79/108/30 129/109/30 130/110/30 76/111/30
f 76/112/31 130/113/31 131/114/31 74/115/31
f 87/116/32 70/117/32 72/118/32 85/119/32
f 70/117/33 69/120/33 71/121/33 72/118/33
f 87/122/29 137/123/29 69/120/29 70/117/29
f 74/115/29 131/114/29 133/124/29 77/125/29
f 74/126/32 77/127/32 79/128/32 76/129/32
f 81/130/30 132/131/30 129/109/30 79/108/30
f 92/105/29 82/132/29 141/133/29 143/106/29
f 78/134/30 84/135/30 142/136/30 140/137/30
f 91/138/30 135/139/30 132/131/30 81/130/30
f 77/125/29 133/124/29 134/140/29 83/141/29
f 98/142/30 97/143/30 95/144/30 96/145/30
f 72/118/30 71/121/30 138/146/30 85/147/30
f 69/120/34 137/148/34 138/149/34 71/121/34
f 89/150/29 136/151/29 137/123/29 87/122/29
f 114/152/33 113/153/33 106/154/33 107/155/33
f 83/156/32 89/157/32 91/158/32 81/159/32
f 83/141/29 134/140/29 136/151/29 89/150/29
f 85/147/30 138/146/30 135/139/30 91/138/30
f 84/135/30 90/160/30 144/161/30 142/136/30
f 94/162/32 93/163/32 96/164/32 95/165/32
f 99/166/35 98/167/35 96/164/35 93/163/35
f 100/168/29 99/169/29 93/170/29 94/171/29
f 97/172/36 100/173/36 94/162/36 95/165/36
f 104/174/37 103/175/37 100/173/37 97/172/37
f 103/176/29 102/177/29 99/169/29 100/168/29
f 127/178/30 125/179/30 109/180/30 111/181/30
f 101/182/30 104/183/30 97/143/30 98/142/30
f 81/130/30 79/108/30 104/183/30 101/182/30
f 83/156/35 81/159/35 101/184/35 102/185/35
f 77/125/29 83/141/29 102/177/29 103/176/29
f 79/128/38 77/127/38 103/175/38 104/174/38
f 108/186/32 107/155/32 106/154/32 105/187/32
f 116/188/31 115/189/31 108/186/31 105/187/31
f 115/190/29 114/191/29 107/192/29 108/193/29
f 113/194/30 116/195/30 105/196/30 106/197/30
f 112/198/33 111/199/33 109/200/33 110/201/33
f 125/202/39 126/203/39 110/201/39 109/200/39
f 128/204/40 127/205/40 111/199/40 112/198/40
f 126/206/29 128/207/29 112/208/29 110/209/29
f 119/210/41 118/211/41 116/195/41 113/194/41
f 120/212/42 117/213/42 114/191/42 115/190/42
f 118/214/43 120/215/43 115/189/43 116/188/43
f 117/216/44 119/217/44 113/153/44 114/152/44
f 87/116/45 85/119/45 119/217/45 117/216/45
f 91/158/46 89/157/46 120/215/46 118/214/46
f 89/150/47 87/122/47 117/213/47 120/212/47
f 85/147/48 91/138/48 118/211/48 119/210/48
f 99/169/49 102/177/49 124/218/49 123/219/49
f 102/185/50 101/184/50 122/220/50 124/221/50
f 98/167/51 99/166/51 123/222/51 121/223/51
f 101/182/52 98/142/52 121/224/52 122/225/52
f 123/219/29 124/218/29 128/207/29 126/206/29
f 124/221/53 122/220/53 127/205/53 128/204/53
f 121/223/54 123/222/54 126/203/54 125/202/54
f 122/225/30 121/224/30 125/179/30 127/178/30
f 111/199/30 109/200/30 105/196/30 116/195/30
f 112/198/29 115/190/29 108/193/29 110/201/29
f 111/226/55 116/227/55 115/228/55 112/229/55
f 110/230/56 108/231/56 105/232/56 109/233/56
f 78/134/34 75/234/34 130/235/34 129/236/34
f 75/234/34 73/237/34 131/238/34 130/235/34
f 84/135/34 78/134/34 129/236/34 132/239/34
f 73/237/34 80/240/34 133/241/34 131/238/34
f 80/240/34 82/132/34 134/242/34 133/241/34
f 90/160/34 84/135/34 132/239/34 135/243/34
f 92/105/34 86/104/34 137/148/34 136/244/34
f 86/104/34 88/245/34 138/149/34 137/148/34
f 88/245/34 90/160/34 135/243/34 138/149/34
f 82/132/34 92/105/34 136/244/34 134/242/34
f 139/246/34 146/247/34 145/248/34 140/137/34
f 141/133/34 139/246/34 140/137/34 142/136/34
f 143/106/34 141/133/34 142/136/34 144/161/34
f 147/107/34 143/106/34 144/161/34 148/249/34
f 80/240/29 73/237/29 146/247/29 139/246/29
f 75/234/30 78/134/30 140/137/30 145/248/30
f 88/245/33 86/104/33 147/107/33 148/249/33
f 82/132/29 80/240/29 139/246/29 141/133/29
f 73/237/31 75/234/31 145/248/31 146/247/31
f 90/160/30 88/245/30 148/249/30 144/161/30
o Barrel_Cylinder
v 0.247389 1.266658 -0.168233
v 2.364177 1.266659 -0.168233
v 0.247389 1.167774 -0.136103
v 2.364177 1.167774 -0.136103
v 0.247389 1.106659 -0.051987
v 2.364177 1.106660 -0.051987
v 0.247389 1.106659 0.051987
v 2.364177 1.106660 0.051987
v 0.247389 1.167774 0.136104
v 2.364177 1.167774 0.136103
v 0.247389 1.266658 0.168233
v 2.364177 1.266659 0.168233
v 0.247389 1.365543 0.136104
v 2.364177 1.365544 0.136103
v 0.247389 1.426658 0.051987
v 2.364177 1.426658 0.051987
v 0.247389 1.426658 -0.051987
v 2.364177 1.426658 -0.051987
v 0.247389 1.365543 -0.136103
v 2.364177 1.365544 -0.136103
vt 1.000000 0.500000
vt 1.000000 1.000000
vt 0.900000 1.000000
vt 0.900000 0.500000
vt 0.800000 1.000000
vt 0.800000 0.500000
vt 0.700000 1.000000
vt 0.700000 0.500000
vt 0.600000 1.000000
vt 0.600000 0.500000
vt 0.500000 1.000000
vt 0.500000 0.500000
vt 0.400000 1.000000
vt 0.400000 0.500000
vt 0.300000 1.000000
vt 0.300000 0.500000
vt 0.200000 1.000000
vt 0.200000 0.500000
vt 0.391068 0.444164
vt 0.250000 0.490000
vt 0.108932 0.444164
vt 0.021746 0.324164
vt 0.021746 0.175836
vt 0.108932 0.055836
vt 0.250000 0.010000
vt 0.391068 0.055836
vt 0.478254 0.175836
vt 0.478254 0.324164
vt 0.100000 1.000000
vt 0.100000 0.500000
vt -0.000000 1.000000
vt -0.000000 0.500000
vt 0.750000 0.490000
vt 0.891068 0.444164
vt 0.978254 0.324164
vt 0.978254 0.175836
vt 0.891068 0.055836
vt 0.750000 0.010000
vt 0.608932 0.055836
vt 0.521746 0.175836
vt 0.521746 0.324164
vt 0.608932 0.444164
vn -0.0000 -0.3090 -0.9511
vn 0.0000 -0.8090 -0.5878
vn 0.0000 -1.0000 0.0000
vn 0.0000 -0.8090 0.5878
vn 0.0000 -0.3090 0.9511
vn 0.0000 0.3090 0.9511
vn -0.0000 0.8090 0.5878
vn -0.0000 1.0000 0.0000
vn 1.0000 -0.0000 0.0000
vn -0.0000 0.8090 -0.5878
vn -0.0000 0.3090 -0.9511
vn -1.0000 0.0000 0.0000
usemtl None
s off
f 149/250/57 150/251/57 152/252/57 151/253/57
f 151/253/58 152/252/58 154/254/58 153/255/58
f 153/255/59 154/254/59 156/256/59 155/257/59
f 155/257/60 156/256/60 158/258/60 157/259/60
f 157/259/61 158/258/61 160/260/61 159/261/61
f 159/261/62 160/260/62 162/262/62 161/263/62
f 161/263/63 162/262/63 164/264/63 163/265/63
f 163/265/64 164/264/64 166/266/64 165/267/64
f 152/268/65 150/269/65 168/270/65 166/271/65 164/272/65 162/273/65 160/274/65 158/275/65 156/276/65 154/277/65
f 165/267/66 166/266/66 168/278/66 167/279/66
f 167/279/67 168/278/67 150/280/67 149/281/67
f 149/282/68 151/283/68 153/284/68 155/285/68 157/286/68 159/287/68 161/288/68 163/289/68 165/290/68 167/291/68
